
        <svg xmlns="http://www.w3.org/2000/svg" xmlns:xlink="http://www.w3.org/1999/xlink" version="1.1" width="3162.263241741332" height="857.9345533062155" viewBox="0 0 3162.263241741332 857.9345533062155">
			
			<g transform="scale(8.113162087066575) translate(10, 10)">
				<defs id="SvgjsDefs1372"/><g id="SvgjsG1373" featureKey="hmhgWD-0" transform="matrix(0.9772587499755975,0,0,0.9772587499755975,-2.2476925153814773,10.741244360143178)" fill="#fff"><g xmlns="http://www.w3.org/2000/svg"><path d="M78.2,43.1c-1.1,5.2-6.2,8-11.4,7c-5.2-1-9.2-5.6-9-11c1.4-1.2,2.9-2.3,4.4-3.4c-3.7-4.2-7.8-8.2-12.2-11.9   c-4.4,3.7-8.4,7.7-12.2,11.9c1.5,1.1,3,2.2,4.4,3.4c0.2,5.3-3.9,9.9-9,11c-5.2,1-10.3-1.8-11.4-7c-6.1-2.1-12.6-3.6-19.5-4.4   c6.6,10.6,12.5,21.6,17.8,33c19.4-8.1,40.4-8.1,59.8,0c5.3-11.4,11.2-22.4,17.8-33C90.9,39.4,84.4,40.9,78.2,43.1z"/><path d="M20.4,74c0.2,0.7,0.4,1.4,0.6,2.2c18.8-7.9,39.3-7.9,58.1,0.1c0.2-0.7,0.4-1.4,0.6-2.2   C60.6,65.9,39.7,65.9,20.4,74z"/></g></g><g id="SvgjsG1374" featureKey="1RRcwp-0" transform="matrix(3.8392568034506334,0,0,3.8392568034506334,106.8571885652689,8.50016409751682)" fill="#fff"><path d="M14.34 20 l-2.66 0 l0 -9.52 l-3.72 5.08 l-3.7 -5.08 l0 9.52 l-2.66 0 l0 -14.24 l2.5 0 l3.86 5.3 l3.86 -5.3 l2.52 0 l0 14.24 z M29.94 20 l-2.88 0 l-1.46 -3.84 l-4.72 0 l-1.48 3.84 l-2.86 0 l5.48 -14.24 l2.42 0 z M21.92 13.52 l2.64 0 l-1.32 -3.46 z M41.78 20 l-9.94 0 l0 -14.24 l2.68 0 l0 11.62 l7.26 0 l0 2.62 z M56.42 20 l-2.88 0 l-1.46 -3.84 l-4.72 0 l-1.48 3.84 l-2.86 0 l5.48 -14.24 l2.42 0 z M48.400000000000006 13.52 l2.64 0 l-1.32 -3.46 z M63.440000000000005 20.12 c-0.46 0 -0.94 -0.06 -1.44 -0.16 c-1.48 -0.3 -2.92 -1.02 -4.18 -2.12 l-0.38 -0.34 l1.76 -2 l0.38 0.34 c0.92 0.8 1.94 1.34 2.94 1.54 l0.02 0 c0.3 0.06 0.6 0.1 0.9 0.1 c0.5 0 0.96 -0.1 1.34 -0.28 c0.48 -0.2 1.04 -0.64 1.04 -1.46 c0 -0.44 -0.22 -0.78 -0.68 -1.06 c-0.56 -0.34 -1.32 -0.52 -1.86 -0.62 c-0.24 -0.04 -2.28 -0.46 -3.22 -0.98 c-0.62 -0.38 -1.1 -0.86 -1.44 -1.42 c-0.34 -0.58 -0.5 -1.22 -0.5 -1.92 c0 -0.76 0.24 -1.52 0.7 -2.22 c0.44 -0.58 1.04 -1.06 1.76 -1.4 s1.52 -0.52 2.38 -0.52 c0.34 0 0.7 0.04 1.06 0.08 c1.32 0.24 2.62 0.84 3.76 1.8 l0.38 0.32 l-1.7 2.06 l-0.38 -0.32 c-1.3 -1.06 -2.42 -1.3 -3.14 -1.3 c-0.46 0 -0.88 0.1 -1.24 0.26 c-0.56 0.26 -0.92 0.74 -0.92 1.22 c0 0.44 0.16 0.72 0.54 0.98 s0.96 0.46 1.88 0.66 c0.12 0.02 0.28 0.06 0.44 0.1 c0.84 0.16 1.96 0.4 2.74 0.86 c0.68 0.36 1.2 0.86 1.56 1.44 s0.54 1.26 0.54 1.98 c0 0.9 -0.24 1.7 -0.72 2.38 c-0.42 0.58 -1.04 1.08 -1.86 1.48 c-0.7 0.36 -1.48 0.52 -2.46 0.52 z"/></g>
			</g>
		</svg>
	